<svg width="585" height="80" viewBox="0 0 585 80" fill="none" xmlns="http://www.w3.org/2000/svg">
<path d="M71.4829 61.0022V18.9978L46.1531 0L1.60493e-05 40L46.1531 80L71.4829 61.0022ZM49.0805 70.8033V55.5537L65.8823 45.0526V58.2019L49.0805 70.8033ZM43.4799 24.0442L14.8329 34.5554L43.4799 9.72879V24.0442ZM43.4799 30.0088V49.9915L16.2577 39.9972L43.4799 30.0088ZM49.0805 31.0519L63.3993 40L49.0805 48.9489V31.0519ZM43.4799 55.9564V70.2712L14.829 45.4401L43.4799 55.9564ZM65.8823 21.7981V34.9474L49.0805 24.4463V9.19673L65.8823 21.7981Z" fill="url(#paint0_linear_2_575)"/>
<path d="M87.8906 25.3672H98.457C100.84 25.3672 102.656 25.5495 103.906 25.9141C105.586 26.4089 107.025 27.2878 108.223 28.5508C109.421 29.8138 110.332 31.3633 110.957 33.1992C111.582 35.0221 111.895 37.2747 111.895 39.957C111.895 42.3138 111.602 44.3451 111.016 46.0508C110.299 48.1341 109.277 49.8203 107.949 51.1094C106.947 52.0859 105.592 52.8477 103.887 53.3945C102.611 53.7982 100.905 54 98.7695 54H87.8906V25.3672ZM93.6719 30.2109V49.1758H97.9883C99.6029 49.1758 100.768 49.0846 101.484 48.9023C102.422 48.668 103.197 48.2708 103.809 47.7109C104.434 47.151 104.941 46.2331 105.332 44.957C105.723 43.668 105.918 41.9167 105.918 39.7031C105.918 37.4896 105.723 35.7904 105.332 34.6055C104.941 33.4206 104.395 32.4961 103.691 31.832C102.988 31.168 102.096 30.7188 101.016 30.4844C100.208 30.3021 98.6263 30.2109 96.2695 30.2109H93.6719ZM128.789 47.3984L134.258 48.3164C133.555 50.3216 132.441 51.8516 130.918 52.9062C129.408 53.9479 127.513 54.4688 125.234 54.4688C121.628 54.4688 118.958 53.2904 117.227 50.9336C115.859 49.0456 115.176 46.6628 115.176 43.7852C115.176 40.3477 116.074 37.6589 117.871 35.7188C119.668 33.7656 121.94 32.7891 124.688 32.7891C127.773 32.7891 130.208 33.8112 131.992 35.8555C133.776 37.8867 134.629 41.0052 134.551 45.2109H120.801C120.84 46.8385 121.283 48.1081 122.129 49.0195C122.975 49.918 124.03 50.3672 125.293 50.3672C126.152 50.3672 126.875 50.1328 127.461 49.6641C128.047 49.1953 128.49 48.4401 128.789 47.3984ZM129.102 41.8516C129.062 40.263 128.652 39.0586 127.871 38.2383C127.09 37.4049 126.139 36.9883 125.02 36.9883C123.822 36.9883 122.832 37.4245 122.051 38.2969C121.27 39.1693 120.885 40.3542 120.898 41.8516H129.102ZM157.91 54H152.422V43.4141C152.422 41.1745 152.305 39.7292 152.07 39.0781C151.836 38.4141 151.452 37.8997 150.918 37.5352C150.397 37.1706 149.766 36.9883 149.023 36.9883C148.073 36.9883 147.22 37.2487 146.465 37.7695C145.71 38.2904 145.189 38.9805 144.902 39.8398C144.629 40.6992 144.492 42.2878 144.492 44.6055V54H139.004V33.2578H144.102V36.3047C145.911 33.9609 148.19 32.7891 150.938 32.7891C152.148 32.7891 153.255 33.0104 154.258 33.4531C155.26 33.8828 156.016 34.4362 156.523 35.1133C157.044 35.7904 157.402 36.5586 157.598 37.418C157.806 38.2773 157.91 39.5078 157.91 41.1094V54ZM169.199 54L160.84 33.2578H166.602L170.508 43.8438L171.641 47.3789C171.94 46.4805 172.129 45.888 172.207 45.6016C172.389 45.0156 172.585 44.4297 172.793 43.8438L176.738 33.2578H182.383L174.141 54H169.199ZM197.773 47.3984L203.242 48.3164C202.539 50.3216 201.426 51.8516 199.902 52.9062C198.392 53.9479 196.497 54.4688 194.219 54.4688C190.612 54.4688 187.943 53.2904 186.211 50.9336C184.844 49.0456 184.16 46.6628 184.16 43.7852C184.16 40.3477 185.059 37.6589 186.855 35.7188C188.652 33.7656 190.924 32.7891 193.672 32.7891C196.758 32.7891 199.193 33.8112 200.977 35.8555C202.76 37.8867 203.613 41.0052 203.535 45.2109H189.785C189.824 46.8385 190.267 48.1081 191.113 49.0195C191.96 49.918 193.014 50.3672 194.277 50.3672C195.137 50.3672 195.859 50.1328 196.445 49.6641C197.031 49.1953 197.474 48.4401 197.773 47.3984ZM198.086 41.8516C198.047 40.263 197.637 39.0586 196.855 38.2383C196.074 37.4049 195.124 36.9883 194.004 36.9883C192.806 36.9883 191.816 37.4245 191.035 38.2969C190.254 39.1693 189.87 40.3542 189.883 41.8516H198.086ZM213.281 54H207.793V33.2578H212.891V36.207C213.763 34.8138 214.544 33.8958 215.234 33.4531C215.938 33.0104 216.732 32.7891 217.617 32.7891C218.867 32.7891 220.072 33.1341 221.23 33.8242L219.531 38.6094C218.607 38.0104 217.747 37.7109 216.953 37.7109C216.185 37.7109 215.534 37.9258 215 38.3555C214.466 38.7721 214.043 39.5339 213.73 40.6406C213.431 41.7474 213.281 44.0651 213.281 47.5938V54ZM234.766 25.3672H245.332C247.715 25.3672 249.531 25.5495 250.781 25.9141C252.461 26.4089 253.9 27.2878 255.098 28.5508C256.296 29.8138 257.207 31.3633 257.832 33.1992C258.457 35.0221 258.77 37.2747 258.77 39.957C258.77 42.3138 258.477 44.3451 257.891 46.0508C257.174 48.1341 256.152 49.8203 254.824 51.1094C253.822 52.0859 252.467 52.8477 250.762 53.3945C249.486 53.7982 247.78 54 245.645 54H234.766V25.3672ZM240.547 30.2109V49.1758H244.863C246.478 49.1758 247.643 49.0846 248.359 48.9023C249.297 48.668 250.072 48.2708 250.684 47.7109C251.309 47.151 251.816 46.2331 252.207 44.957C252.598 43.668 252.793 41.9167 252.793 39.7031C252.793 37.4896 252.598 35.7904 252.207 34.6055C251.816 33.4206 251.27 32.4961 250.566 31.832C249.863 31.168 248.971 30.7188 247.891 30.4844C247.083 30.3021 245.501 30.2109 243.145 30.2109H240.547ZM263.652 30.4453V25.3672H269.141V30.4453H263.652ZM263.652 54V33.2578H269.141V54H263.652ZM278.887 39.5859L273.906 38.6875C274.466 36.6823 275.43 35.1979 276.797 34.2344C278.164 33.2708 280.195 32.7891 282.891 32.7891C285.339 32.7891 287.161 33.082 288.359 33.668C289.557 34.2409 290.397 34.9766 290.879 35.875C291.374 36.7604 291.621 38.3945 291.621 40.7773L291.562 47.1836C291.562 49.0065 291.647 50.3542 291.816 51.2266C291.999 52.0859 292.331 53.0104 292.812 54H287.383C287.24 53.6354 287.064 53.0951 286.855 52.3789C286.764 52.0534 286.699 51.8385 286.66 51.7344C285.723 52.6458 284.72 53.3294 283.652 53.7852C282.585 54.2409 281.445 54.4688 280.234 54.4688C278.099 54.4688 276.413 53.8893 275.176 52.7305C273.952 51.5716 273.34 50.1068 273.34 48.3359C273.34 47.1641 273.62 46.1224 274.18 45.2109C274.74 44.2865 275.521 43.5833 276.523 43.1016C277.539 42.6068 278.997 42.1771 280.898 41.8125C283.464 41.3307 285.241 40.8815 286.23 40.4648V39.918C286.23 38.8633 285.97 38.1146 285.449 37.6719C284.928 37.2161 283.945 36.9883 282.5 36.9883C281.523 36.9883 280.762 37.1836 280.215 37.5742C279.668 37.9518 279.225 38.6224 278.887 39.5859ZM286.23 44.0391C285.527 44.2734 284.414 44.5534 282.891 44.8789C281.367 45.2044 280.371 45.5234 279.902 45.8359C279.186 46.3438 278.828 46.9883 278.828 47.7695C278.828 48.5378 279.115 49.2018 279.688 49.7617C280.26 50.3216 280.99 50.6016 281.875 50.6016C282.865 50.6016 283.809 50.276 284.707 49.625C285.371 49.1302 285.807 48.5247 286.016 47.8086C286.159 47.3398 286.23 46.4479 286.23 45.1328V44.0391ZM296.641 33.2578H301.699V36.0898C303.509 33.8893 305.664 32.7891 308.164 32.7891C309.492 32.7891 310.645 33.0625 311.621 33.6094C312.598 34.1562 313.398 34.9831 314.023 36.0898C314.935 34.9831 315.918 34.1562 316.973 33.6094C318.027 33.0625 319.154 32.7891 320.352 32.7891C321.875 32.7891 323.164 33.1016 324.219 33.7266C325.273 34.3385 326.061 35.2435 326.582 36.4414C326.96 37.3268 327.148 38.7591 327.148 40.7383V54H321.66V42.1445C321.66 40.0872 321.471 38.7591 321.094 38.1602C320.586 37.3789 319.805 36.9883 318.75 36.9883C317.982 36.9883 317.259 37.2227 316.582 37.6914C315.905 38.1602 315.417 38.8503 315.117 39.7617C314.818 40.6602 314.668 42.0859 314.668 44.0391V54H309.18V42.6328C309.18 40.6146 309.082 39.3125 308.887 38.7266C308.691 38.1406 308.385 37.7044 307.969 37.418C307.565 37.1315 307.012 36.9883 306.309 36.9883C305.462 36.9883 304.701 37.2161 304.023 37.6719C303.346 38.1276 302.858 38.7852 302.559 39.6445C302.272 40.5039 302.129 41.9297 302.129 43.9219V54H296.641V33.2578ZM331.367 43.3359C331.367 41.513 331.816 39.7487 332.715 38.043C333.613 36.3372 334.883 35.0352 336.523 34.1367C338.177 33.2383 340.02 32.7891 342.051 32.7891C345.189 32.7891 347.76 33.8112 349.766 35.8555C351.771 37.8867 352.773 40.4583 352.773 43.5703C352.773 46.7083 351.758 49.3125 349.727 51.3828C347.708 53.4401 345.163 54.4688 342.09 54.4688C340.189 54.4688 338.372 54.0391 336.641 53.1797C334.922 52.3203 333.613 51.0638 332.715 49.4102C331.816 47.7435 331.367 45.7188 331.367 43.3359ZM336.992 43.6289C336.992 45.6862 337.48 47.2617 338.457 48.3555C339.434 49.4492 340.638 49.9961 342.07 49.9961C343.503 49.9961 344.701 49.4492 345.664 48.3555C346.641 47.2617 347.129 45.6732 347.129 43.5898C347.129 41.5586 346.641 39.9961 345.664 38.9023C344.701 37.8086 343.503 37.2617 342.07 37.2617C340.638 37.2617 339.434 37.8086 338.457 38.9023C337.48 39.9961 336.992 41.5716 336.992 43.6289ZM375.957 54H370.469V43.4141C370.469 41.1745 370.352 39.7292 370.117 39.0781C369.883 38.4141 369.499 37.8997 368.965 37.5352C368.444 37.1706 367.812 36.9883 367.07 36.9883C366.12 36.9883 365.267 37.2487 364.512 37.7695C363.757 38.2904 363.236 38.9805 362.949 39.8398C362.676 40.6992 362.539 42.2878 362.539 44.6055V54H357.051V33.2578H362.148V36.3047C363.958 33.9609 366.237 32.7891 368.984 32.7891C370.195 32.7891 371.302 33.0104 372.305 33.4531C373.307 33.8828 374.062 34.4362 374.57 35.1133C375.091 35.7904 375.449 36.5586 375.645 37.418C375.853 38.2773 375.957 39.5078 375.957 41.1094V54ZM400.566 54H395.469V50.9531C394.622 52.138 393.62 53.0234 392.461 53.6094C391.315 54.1823 390.156 54.4688 388.984 54.4688C386.602 54.4688 384.557 53.5117 382.852 51.5977C381.159 49.6706 380.312 46.9883 380.312 43.5508C380.312 40.0352 381.139 37.3659 382.793 35.543C384.447 33.707 386.536 32.7891 389.062 32.7891C391.38 32.7891 393.385 33.7526 395.078 35.6797V25.3672H400.566V54ZM385.918 43.1797C385.918 45.3932 386.224 46.9948 386.836 47.9844C387.721 49.4167 388.958 50.1328 390.547 50.1328C391.81 50.1328 392.884 49.599 393.77 48.5312C394.655 47.4505 395.098 45.8424 395.098 43.707C395.098 41.3242 394.668 39.612 393.809 38.5703C392.949 37.5156 391.849 36.9883 390.508 36.9883C389.206 36.9883 388.112 37.5091 387.227 38.5508C386.354 39.5794 385.918 41.1224 385.918 43.1797ZM441.504 54H435.215L432.715 47.4961H421.27L418.906 54H412.773L423.926 25.3672H430.039L441.504 54ZM430.859 42.6719L426.914 32.0469L423.047 42.6719H430.859ZM458.203 54V50.8945C457.448 52.0013 456.452 52.8737 455.215 53.5117C453.991 54.1497 452.695 54.4688 451.328 54.4688C449.935 54.4688 448.685 54.1628 447.578 53.5508C446.471 52.9388 445.671 52.0794 445.176 50.9727C444.681 49.8659 444.434 48.3359 444.434 46.3828V33.2578H449.922V42.7891C449.922 45.7057 450.02 47.4961 450.215 48.1602C450.423 48.8112 450.794 49.332 451.328 49.7227C451.862 50.1003 452.539 50.2891 453.359 50.2891C454.297 50.2891 455.137 50.0352 455.879 49.5273C456.621 49.0065 457.129 48.3685 457.402 47.6133C457.676 46.8451 457.812 44.9766 457.812 42.0078V33.2578H463.301V54H458.203ZM487.09 39.3906L481.68 40.3672C481.497 39.2865 481.081 38.4727 480.43 37.9258C479.792 37.3789 478.958 37.1055 477.93 37.1055C476.562 37.1055 475.469 37.5807 474.648 38.5312C473.841 39.4688 473.438 41.0443 473.438 43.2578C473.438 45.7188 473.848 47.457 474.668 48.4727C475.501 49.4883 476.615 49.9961 478.008 49.9961C479.049 49.9961 479.902 49.7031 480.566 49.1172C481.23 48.5182 481.699 47.4961 481.973 46.0508L487.363 46.9688C486.803 49.4427 485.729 51.3112 484.141 52.5742C482.552 53.8372 480.423 54.4688 477.754 54.4688C474.72 54.4688 472.298 53.5117 470.488 51.5977C468.691 49.6836 467.793 47.0339 467.793 43.6484C467.793 40.224 468.698 37.5612 470.508 35.6602C472.318 33.7461 474.766 32.7891 477.852 32.7891C480.378 32.7891 482.383 33.3359 483.867 34.4297C485.365 35.5104 486.439 37.1641 487.09 39.3906ZM500.781 33.2578V37.6328H497.031V45.9922C497.031 47.6849 497.064 48.6745 497.129 48.9609C497.207 49.2344 497.37 49.4622 497.617 49.6445C497.878 49.8268 498.19 49.918 498.555 49.918C499.062 49.918 499.798 49.7422 500.762 49.3906L501.23 53.6484C499.954 54.1953 498.509 54.4688 496.895 54.4688C495.905 54.4688 495.013 54.306 494.219 53.9805C493.424 53.6419 492.839 53.2122 492.461 52.6914C492.096 52.1576 491.842 51.4414 491.699 50.543C491.582 49.9049 491.523 48.6159 491.523 46.6758V37.6328H489.004V33.2578H491.523V29.1367L497.031 25.9336V33.2578H500.781ZM504.59 30.4453V25.3672H510.078V30.4453H504.59ZM504.59 54V33.2578H510.078V54H504.59ZM514.453 43.3359C514.453 41.513 514.902 39.7487 515.801 38.043C516.699 36.3372 517.969 35.0352 519.609 34.1367C521.263 33.2383 523.105 32.7891 525.137 32.7891C528.275 32.7891 530.846 33.8112 532.852 35.8555C534.857 37.8867 535.859 40.4583 535.859 43.5703C535.859 46.7083 534.844 49.3125 532.812 51.3828C530.794 53.4401 528.249 54.4688 525.176 54.4688C523.275 54.4688 521.458 54.0391 519.727 53.1797C518.008 52.3203 516.699 51.0638 515.801 49.4102C514.902 47.7435 514.453 45.7188 514.453 43.3359ZM520.078 43.6289C520.078 45.6862 520.566 47.2617 521.543 48.3555C522.52 49.4492 523.724 49.9961 525.156 49.9961C526.589 49.9961 527.786 49.4492 528.75 48.3555C529.727 47.2617 530.215 45.6732 530.215 43.5898C530.215 41.5586 529.727 39.9961 528.75 38.9023C527.786 37.8086 526.589 37.2617 525.156 37.2617C523.724 37.2617 522.52 37.8086 521.543 38.9023C520.566 39.9961 520.078 41.5716 520.078 43.6289ZM559.043 54H553.555V43.4141C553.555 41.1745 553.438 39.7292 553.203 39.0781C552.969 38.4141 552.585 37.8997 552.051 37.5352C551.53 37.1706 550.898 36.9883 550.156 36.9883C549.206 36.9883 548.353 37.2487 547.598 37.7695C546.842 38.2904 546.322 38.9805 546.035 39.8398C545.762 40.6992 545.625 42.2878 545.625 44.6055V54H540.137V33.2578H545.234V36.3047C547.044 33.9609 549.323 32.7891 552.07 32.7891C553.281 32.7891 554.388 33.0104 555.391 33.4531C556.393 33.8828 557.148 34.4362 557.656 35.1133C558.177 35.7904 558.535 36.5586 558.73 37.418C558.939 38.2773 559.043 39.5078 559.043 41.1094V54ZM562.695 48.082L568.203 47.2422C568.438 48.3099 568.913 49.1237 569.629 49.6836C570.345 50.2305 571.348 50.5039 572.637 50.5039C574.056 50.5039 575.124 50.2435 575.84 49.7227C576.322 49.3581 576.562 48.8698 576.562 48.2578C576.562 47.8411 576.432 47.4961 576.172 47.2227C575.898 46.9622 575.286 46.7214 574.336 46.5C569.909 45.5234 567.103 44.6315 565.918 43.8242C564.277 42.7044 563.457 41.1484 563.457 39.1562C563.457 37.3594 564.167 35.849 565.586 34.625C567.005 33.401 569.206 32.7891 572.188 32.7891C575.026 32.7891 577.135 33.2513 578.516 34.1758C579.896 35.1003 580.846 36.4674 581.367 38.2773L576.191 39.2344C575.97 38.4271 575.547 37.8086 574.922 37.3789C574.31 36.9492 573.431 36.7344 572.285 36.7344C570.84 36.7344 569.805 36.9362 569.18 37.3398C568.763 37.6263 568.555 37.9974 568.555 38.4531C568.555 38.8438 568.737 39.1758 569.102 39.4492C569.596 39.8138 571.302 40.3281 574.219 40.9922C577.148 41.6562 579.193 42.4701 580.352 43.4336C581.497 44.4102 582.07 45.7708 582.07 47.5156C582.07 49.4167 581.276 51.0508 579.688 52.418C578.099 53.7852 575.749 54.4688 572.637 54.4688C569.811 54.4688 567.572 53.8958 565.918 52.75C564.277 51.6042 563.203 50.0482 562.695 48.082Z" fill="url(#paint1_linear_2_575)"/>
<defs>
<linearGradient id="paint0_linear_2_575" x1="35.7415" y1="0" x2="35.7415" y2="80" gradientUnits="userSpaceOnUse">
<stop stop-color="#7B99CB"/>
<stop offset="1" stop-color="white"/>
</linearGradient>
<linearGradient id="paint1_linear_2_575" x1="85" y1="40" x2="585" y2="40" gradientUnits="userSpaceOnUse">
<stop stop-color="#7B99CB"/>
<stop offset="1" stop-color="white"/>
</linearGradient>
</defs>
</svg>
